<svg width="234" height="60" viewBox="0 0 234 60" fill="none" xmlns="http://www.w3.org/2000/svg">
<rect width="234" height="60" fill="#282828"/>
<path d="M78.5 41.8594H75.1367V34.6641C74.6445 35.1562 74.0664 35.543 73.4023 35.8242C72.7461 36.0977 72.0352 36.2344 71.2695 36.2344C70.207 36.2344 69.2539 35.9727 68.4102 35.4492C67.5742 34.918 66.9141 34.1914 66.4297 33.2695C65.9453 32.3477 65.7031 31.3047 65.7031 30.1406C65.7031 28.9688 65.9453 27.9258 66.4297 27.0117C66.9141 26.0898 67.5742 25.3672 68.4102 24.8438C69.2539 24.3125 70.207 24.0469 71.2695 24.0469C72.0977 24.0469 72.8633 24.2109 73.5664 24.5391C74.2695 24.8594 74.8711 25.3047 75.3711 25.875L75.5352 24.2812H78.5V41.8594ZM72.1367 33.2109C72.6914 33.2109 73.1836 33.0938 73.6133 32.8594C74.0508 32.625 74.4023 32.3008 74.668 31.8867C74.9336 31.4648 75.0898 30.9844 75.1367 30.4453V29.8594C75.0898 29.3125 74.9336 28.8281 74.668 28.4062C74.4102 27.9844 74.0625 27.6562 73.625 27.4219C73.1953 27.1875 72.7031 27.0703 72.1484 27.0703C71.5703 27.0703 71.0547 27.2031 70.6016 27.4688C70.1562 27.7266 69.8047 28.0859 69.5469 28.5469C69.2891 29.0078 69.1602 29.5391 69.1602 30.1406C69.1602 30.7344 69.2852 31.2656 69.5352 31.7344C69.793 32.1953 70.1484 32.5586 70.6016 32.8242C71.0547 33.082 71.5664 33.2109 72.1367 33.2109ZM93.4297 41.8594H90.0664V34.6641C89.5742 35.1562 88.9961 35.543 88.332 35.8242C87.6758 36.0977 86.9648 36.2344 86.1992 36.2344C85.1367 36.2344 84.1836 35.9727 83.3398 35.4492C82.5039 34.918 81.8438 34.1914 81.3594 33.2695C80.875 32.3477 80.6328 31.3047 80.6328 30.1406C80.6328 28.9688 80.875 27.9258 81.3594 27.0117C81.8438 26.0898 82.5039 25.3672 83.3398 24.8438C84.1836 24.3125 85.1367 24.0469 86.1992 24.0469C87.0273 24.0469 87.793 24.2109 88.4961 24.5391C89.1992 24.8594 89.8008 25.3047 90.3008 25.875L90.4648 24.2812H93.4297V41.8594ZM87.0664 33.2109C87.6211 33.2109 88.1133 33.0938 88.543 32.8594C88.9805 32.625 89.332 32.3008 89.5977 31.8867C89.8633 31.4648 90.0195 30.9844 90.0664 30.4453V29.8594C90.0195 29.3125 89.8633 28.8281 89.5977 28.4062C89.3398 27.9844 88.9922 27.6562 88.5547 27.4219C88.125 27.1875 87.6328 27.0703 87.0781 27.0703C86.5 27.0703 85.9844 27.2031 85.5312 27.4688C85.0859 27.7266 84.7344 28.0859 84.4766 28.5469C84.2188 29.0078 84.0898 29.5391 84.0898 30.1406C84.0898 30.7344 84.2148 31.2656 84.4648 31.7344C84.7227 32.1953 85.0781 32.5586 85.5312 32.8242C85.9844 33.082 86.4961 33.2109 87.0664 33.2109ZM107.082 34.6875C105.629 35.7188 104.039 36.2344 102.312 36.2344C101.031 36.2344 99.8789 35.9609 98.8555 35.4141C97.8398 34.8594 97.0352 34.1094 96.4414 33.1641C95.8555 32.2188 95.5625 31.1523 95.5625 29.9648C95.5625 28.832 95.8281 27.8203 96.3594 26.9297C96.8984 26.0391 97.6289 25.3359 98.5508 24.8203C99.4727 24.3047 100.52 24.0469 101.691 24.0469C102.902 24.0469 103.969 24.332 104.891 24.9023C105.812 25.4648 106.531 26.2539 107.047 27.2695C107.562 28.2773 107.82 29.4453 107.82 30.7734V31.1484H99.1836C99.3242 31.6094 99.5547 32.0156 99.875 32.3672C100.195 32.7109 100.594 32.9844 101.07 33.1875C101.547 33.3906 102.094 33.4922 102.711 33.4922C103.906 33.4922 105.02 33.1055 106.051 32.332L107.082 34.6875ZM99.0312 29.4375H104.715C104.652 28.9297 104.492 28.4844 104.234 28.1016C103.984 27.7109 103.652 27.4062 103.238 27.1875C102.832 26.9688 102.375 26.8594 101.867 26.8594C101.352 26.8594 100.891 26.9727 100.484 27.1992C100.086 27.4258 99.7617 27.7305 99.5117 28.1133C99.2617 28.4961 99.1016 28.9375 99.0312 29.4375ZM115.355 41.8594H111.77L114.207 35.9883L108.289 24.2812H112.086L115.801 32.1562L119.059 24.2812H122.633L115.355 41.8594ZM125.094 36.2344C124.625 36.2344 124.242 36.0898 123.945 35.8008C123.656 35.5039 123.512 35.1172 123.512 34.6406C123.512 34.1641 123.656 33.7812 123.945 33.4922C124.242 33.1953 124.625 33.0469 125.094 33.0469C125.57 33.0469 125.957 33.1953 126.254 33.4922C126.551 33.7812 126.699 34.1641 126.699 34.6406C126.699 35.1172 126.551 35.5039 126.254 35.8008C125.957 36.0898 125.57 36.2344 125.094 36.2344ZM141.078 36H137.715V30C137.715 29.0859 137.496 28.3711 137.059 27.8555C136.629 27.332 136.039 27.0703 135.289 27.0703C134.508 27.0703 133.887 27.3438 133.426 27.8906C132.973 28.4297 132.746 29.1641 132.746 30.0938V36H129.383V24.2812H132.102L132.219 26.1562C132.641 25.4688 133.191 24.9453 133.871 24.5859C134.551 24.2266 135.352 24.0469 136.273 24.0469C137.766 24.0469 138.938 24.5078 139.789 25.4297C140.648 26.3438 141.078 27.6094 141.078 29.2266V36ZM154.496 34.6875C153.043 35.7188 151.453 36.2344 149.727 36.2344C148.445 36.2344 147.293 35.9609 146.27 35.4141C145.254 34.8594 144.449 34.1094 143.855 33.1641C143.27 32.2188 142.977 31.1523 142.977 29.9648C142.977 28.832 143.242 27.8203 143.773 26.9297C144.312 26.0391 145.043 25.3359 145.965 24.8203C146.887 24.3047 147.934 24.0469 149.105 24.0469C150.316 24.0469 151.383 24.332 152.305 24.9023C153.227 25.4648 153.945 26.2539 154.461 27.2695C154.977 28.2773 155.234 29.4453 155.234 30.7734V31.1484H146.598C146.738 31.6094 146.969 32.0156 147.289 32.3672C147.609 32.7109 148.008 32.9844 148.484 33.1875C148.961 33.3906 149.508 33.4922 150.125 33.4922C151.32 33.4922 152.434 33.1055 153.465 32.332L154.496 34.6875ZM146.445 29.4375H152.129C152.066 28.9297 151.906 28.4844 151.648 28.1016C151.398 27.7109 151.066 27.4062 150.652 27.1875C150.246 26.9688 149.789 26.8594 149.281 26.8594C148.766 26.8594 148.305 26.9727 147.898 27.1992C147.5 27.4258 147.176 27.7305 146.926 28.1133C146.676 28.4961 146.516 28.9375 146.445 29.4375ZM165.207 35.6953C164.309 36.0547 163.438 36.2344 162.594 36.2344C161.719 36.2344 160.945 36.0508 160.273 35.6836C159.609 35.3086 159.09 34.7891 158.715 34.125C158.34 33.4531 158.152 32.6797 158.152 31.8047V27.2812H156.102V24.2812H158.328V21.3516H161.516V24.2812H164.762V27.2812H161.516V31.1953C161.516 31.8359 161.691 32.3359 162.043 32.6953C162.395 33.0469 162.832 33.2227 163.355 33.2227C163.832 33.2227 164.297 33.0742 164.75 32.7773L165.207 35.6953Z" fill="white"/>
</svg>
