<svg width="1200" height="630" viewBox="0 0 1200 630" fill="none" xmlns="http://www.w3.org/2000/svg">
<g clip-path="url(#clip0_14_37)">
<rect width="1200" height="630" fill="white"/>
<path fill-rule="evenodd" clip-rule="evenodd" d="M78.5183 -208.643C126.619 -217.336 168.878 -182.031 215.17 -166.338C287.475 -141.825 405.213 -164.599 425.523 -91.0023C446.248 -15.9035 345.559 39.2491 285.645 89.0461C250.339 118.392 202.474 119.521 158.094 131.273C131.481 138.32 104.433 134.602 78.5183 143.894C30.203 161.218 -7.65476 222.133 -57.1211 208.438C-102.648 195.834 -129.168 134.703 -124.463 87.699C-119.821 41.3209 -54.4402 27.1901 -34.7503 -15.0567C-19.169 -48.4881 -45.0396 -90.8435 -26.4126 -122.679C-3.00518 -162.684 32.9069 -200.4 78.5183 -208.643Z" fill="#F178B6"/>
</g>
<defs>
<clipPath id="clip0_14_37">
<rect width="1200" height="630" fill="white"/>
</clipPath>
</defs>
</svg>
